<svg id="Layer_1" data-name="Layer 1" xmlns="http://www.w3.org/2000/svg" viewBox="0 0 348.71 259.22"><title>bexcrest</title><rect x="53.11" y="168.1" width="5" height="22.7"/><polygon points="121.11 62.97 121.11 89 116.11 89 116.11 66.03 121.11 62.97"/><polygon points="231.91 46.41 231.91 46.6 230.71 46.6 230.71 45.67 231.91 46.41"/><path d="M298.6,168.1v-75l45.55,27.78,2.66-4.35L298.6,87.09V41.8h-5V84L235.7,48.72V0h-5V33.9H211.4L176.33,12.51l-.1.17-.12-.2L121.1,46V.5h-5V49.08l-58,35.38V41.8h-5V87.51L0,119.9l2.81,4.61L53.1,93.83V168.1h5V90.78L85.21,74.24,89.93,82,116.1,66l5-3.06,54.82-33.44L230.7,63V89h5V66l26.31,16,5-8.24L293.6,90V168.1H235.7V98.5h45.4v-5H70.9v5h45.2v69.6h-58v5h58.3V191h5V173.1h109v17.8h5V173.1h58.2v17.7h5V173.1h50.1v-5ZM176.48,18.58l-2.3,1.4.95-1.56.3-.48.13-.22.36.22.46-.28.44.71.1.18.3.48ZM230.7,45.67l1.2.74v.19h-1.2ZM195.9,98.5V93.8h.1v4.7h-.1v.72l-.72-.72Zm-40,70.3h-1.6v-.7h1.6Zm0-28.88-.82-.82h.82Zm17-22.92h-17v5h17v17.1H160L155.9,135V122h-.5v-5h.5V98.5h5l.22.22-1.38,1.38H172.9Zm6,22.1V122h17v-5h-17V100.1h12.93l4.07,4.07V117h1.5v5h-1.5v13l-4.12,4.11Zm17.83,0-.83.84v-.84Zm1.67,29.7h-2.5v-.7h2.5Z" transform="translate(0.01)"/><rect x="3.91" y="168.1" width="54.2" height="5"/><rect x="154.31" y="168.1" width="1.6" height="0.7"/><rect x="195.91" y="168.1" width="2.5" height="0.7"/><rect x="155.41" y="117" width="0.5" height="5"/><polygon points="155.91 139.1 155.91 139.92 155.09 139.1 155.91 139.1"/><rect x="154.31" y="168.1" width="1.6" height="0.7"/><rect x="195.91" y="117" width="1.5" height="5"/><rect x="195.91" y="168.1" width="2.5" height="0.7"/><polygon points="196.74 139.1 195.91 139.94 195.91 139.1 196.74 139.1"/><rect x="195.91" y="93.8" width="0.1" height="4.7"/><polygon points="155.91 139.1 155.91 139.92 155.09 139.1 155.91 139.1"/><rect x="154.31" y="168.1" width="1.6" height="0.7"/><polygon points="196.74 139.1 195.91 139.94 195.91 139.1 196.74 139.1"/><rect x="195.91" y="168.1" width="2.5" height="0.7"/><polygon points="161.16 98.72 159.78 100.1 155.91 100.1 155.91 98.5 160.94 98.5 161.16 98.72"/><polygon points="195.91 98.5 195.91 99.22 195.19 98.5 195.91 98.5"/><rect x="195.91" y="93.8" width="0.1" height="4.7"/><polygon points="176.83 18.37 176.73 18.43 176.49 18.58 174.19 19.98 175.14 18.42 175.44 17.94 175.57 17.72 175.93 17.94 176.39 17.66 176.83 18.37"/><polygon points="177.23 19.03 176.49 18.58 175.68 18.09 175.44 17.94 175.57 17.72 175.93 17.94 176.39 17.66 176.83 18.37 176.93 18.55 177.23 19.03"/><polygon points="231.91 46.41 231.91 46.6 230.71 46.6 230.71 45.67 231.91 46.41"/><polygon points="175.71 55.4 121.61 89 229.91 89 175.71 55.4"/><polygon points="177.23 19.03 176.49 18.58 174.19 19.98 175.14 18.42 175.68 18.09 175.93 17.94 176.39 17.66 176.83 18.37 176.93 18.55 177.23 19.03"/><polygon points="177.23 19.03 176.49 18.58 174.19 19.98 175.14 18.42 175.44 17.94 175.57 17.72 175.93 17.94 176.73 18.43 176.93 18.55 177.23 19.03"/><rect x="195.91" y="93.8" width="0.1" height="4.7"/><rect x="155.41" y="117" width="0.5" height="5"/><rect x="195.91" y="117" width="1.5" height="5"/><polygon points="161.16 98.72 155.91 103.97 155.91 99.02 156.43 98.5 160.94 98.5 161.16 98.72"/><polygon points="196.74 139.1 195.91 139.94 195.91 139.1 196.74 139.1"/><polygon points="155.91 139.1 155.91 139.92 155.09 139.1 155.91 139.1"/><polygon points="231.91 46.41 231.91 46.6 230.71 46.6 230.71 45.67 231.91 46.41"/><g style="isolation:isolate"><path d="M70,199.13H78.8c6.91,0,10.8,3.55,10.8,9.16a6.94,6.94,0,0,1-3.79,6.58c.48.1,5.61,1.59,5.61,8.26,0,5.86-4.32,9.6-10.94,9.6H70Zm9.5,14.49c3.79,0,6.1-2.06,6.1-5.33S83.26,203,79.47,203H74v10.65Zm7.92,9.51c0-3.17-2.11-5.76-6.91-5.76H74v11.52h6.48C85.28,228.89,87.39,226.3,87.39,223.13Z" transform="translate(0.01)"/><path d="M101,213.58h14.21v3.84H101v11.47h15.65v3.84H97v-33.6h19.39V203H101Z" transform="translate(0.01)"/><path d="M133.18,218.62l-8.64,14.11H120l10.85-17.38-10.08-16.22h4.75l8,13.05,7.92-13.05h4.51l-10.08,16.22,10.85,17.38h-4.8Z" transform="translate(0.01)"/><path d="M175.18,206.33a12.19,12.19,0,0,0-9.26-3.94c-7.3,0-12.29,6.39-12.29,13.54s5,13.53,12.29,13.53a13.29,13.29,0,0,0,9.7-4.46l2.73,2.79a17.08,17.08,0,0,1-12.43,5.52c-9.7,0-16.61-7.69-16.61-17.38s6.91-17.38,16.61-17.38A16.15,16.15,0,0,1,178,203.69Z" transform="translate(0.01)"/><path d="M183.25,199.13H192c6.67,0,11.23,3.93,11.23,9.93,0,8-7.24,9.46-8.2,9.6l9.31,14.07h-4.85L190.4,219h-3.12v13.73h-4Zm15.93,9.93c0-3.69-2.45-6.09-7-6.09h-4.94v12.19h4.94C196.73,215.16,199.18,212.76,199.18,209.06Z" transform="translate(0.01)"/><path d="M213.82,213.58H228v3.84H213.82v11.47h15.65v3.84H209.79v-33.6h19.39V203H213.82Z" transform="translate(0.01)"/><path d="M244.83,217.61c-4.9-2.26-9.22-4.51-9.22-10.23,0-3.93,3.27-8.83,9.7-8.83a11.94,11.94,0,0,1,9.55,4.9l-3,2.45a8.46,8.46,0,0,0-6.53-3.51c-3.7,0-5.67,2.59-5.67,5,0,3.41,2.88,4.76,7.49,6.87,5.14,2.35,8.36,4.51,8.36,9.94s-4.52,9.12-10.42,9.12a11.69,11.69,0,0,1-10.71-7l3.36-2s2,5.18,7.35,5.18c3.22,0,6.29-1.82,6.29-5.27S248.57,219.34,244.83,217.61Z" transform="translate(0.01)"/><path d="M268.3,203h-9.65v-3.84H282V203h-9.65v29.76h-4Z" transform="translate(0.01)"/></g><g style="isolation:isolate"><path d="M149.47,243.56h1.14V259h-1.14v-7.37H140.6V259h-1.14v-15.4h1.14v7h8.87Z" transform="translate(0.01)"/><path d="M153.51,251.26a7.62,7.62,0,1,1,7.62,8A7.66,7.66,0,0,1,153.51,251.26Zm1.19,0c0,3.78,2.58,6.84,6.43,6.84s6.42-3.06,6.42-6.84-2.57-6.84-6.42-6.84S154.7,247.47,154.7,251.26Z" transform="translate(0.01)"/><path d="M172.72,243.56l5.9,9.46,5.89-9.46h1.08V259h-1.14V245.82l-5.83,9.29-5.86-9.26V259h-1.12v-15.4Z" transform="translate(0.01)"/><path d="M190.61,250.53h6.86v1.06h-6.86v6.31h7.52V259h-8.67v-15.4H198v1.05h-7.39Z" transform="translate(0.01)"/><path d="M205.3,251.63c-2.26-1-4.13-2.18-4.13-4.51a4,4,0,0,1,4.29-3.83,5.25,5.25,0,0,1,4.18,2.23l-.88.68a4.06,4.06,0,0,0-3.28-1.78c-1.94,0-3.17,1.16-3.17,2.7,0,1.89,1.74,2.73,3.94,3.7,2.35,1,3.67,2.22,3.67,4.29,0,2.49-2,4.11-4.6,4.11a5.5,5.5,0,0,1-4.77-3.14l1-.62a4.24,4.24,0,0,0,3.74,2.64c1.92,0,3.46-1.14,3.46-3S207.11,252.42,205.3,251.63Z" transform="translate(0.01)"/></g><rect x="33.41" y="249.9" width="100" height="3"/><rect x="218.01" y="249.9" width="100" height="3"/></svg>