<svg id="Layer_1" data-name="Layer 1" xmlns="http://www.w3.org/2000/svg" viewBox="0 0 330.92 50.18"><title>bexcrest-navbar</title><polygon points="60.69 12.14 60.69 12.2 60.38 12.2 60.38 11.96 60.69 12.14" fill="#fff"/><polygon points="61.68 14.22 61.68 14.3 60.38 13.51 60.38 13.43 61.68 14.22" fill="#fff"/><rect x="40.66" y="30.63" width="0.13" height="1.31" fill="#fff"/><polygon points="40.79 36.41 40.79 36.62 40.58 36.41 40.79 36.41" fill="#fff"/><polygon points="51.47 36.41 51.28 36.61 51.28 36.41 51.47 36.41" fill="#fff"/><polygon points="40.79 36.41 40.79 36.62 40.58 36.41 40.79 36.41" fill="#fff"/><polygon points="51.47 36.41 51.28 36.61 51.28 36.41 51.47 36.41" fill="#fff"/><polygon points="40.93 25.77 40.79 25.91 40.79 25.77 40.93 25.77" fill="#fff"/><polygon points="51.28 25.77 51.28 25.95 51.1 25.77 51.28 25.77" fill="#fff"/><polygon points="46.19 4.85 45.57 5.23 45.82 4.82 45.91 4.68 45.94 4.62 46.04 4.68 45.98 4.72 46.19 4.85" fill="#fff"/><polygon points="46.04 4.68 45.98 4.72 45.91 4.68 45.94 4.62 46.04 4.68" fill="#fff"/><polygon points="46.27 4.81 46.27 4.82 46.26 4.81 46.27 4.81" fill="#fff"/><polygon points="60.69 12.14 60.69 12.2 60.38 12.2 60.38 11.96 60.69 12.14" fill="#fff"/><polygon points="61.68 14.22 61.68 14.3 60.38 13.51 60.38 13.43 61.68 14.22" fill="#fff"/><path d="M78.15,44V24.34l11.93,7.28.69-1.13-12.62-7.7V11H76.84V22L61.68,12.75V0h-1.3V8.87H55.32l-9.18-5.6,0,0,0-.05L31.69,12V.13H30.38V12.84L15.2,22.1V11H13.89v12L0,31.37l.74,1.21,13.15-8V44H1V45.3H13.89v4.63H15.2V45.3H30.4l.05,4.7h1.31V45.3H60.29v4.88H61.6V45.3H76.84v4.63h1.31V45.3H91.27V44ZM60.38,12l.31.18v.06h-.31Zm0,1.47,1.3.79v.08l-1.3-.79ZM46.27,4.81h0Zm-.45,0,.09-.14,0-.06.1.06-.06,0,.21.13-.62.38Zm-5,31.8-.21-.21h.21Zm4.46-.21H41.88l-1.09-1.09V31.94h-.13V30.63h.13V27.21l1-1h3.46Zm-4.46-10.5v-.14h.14Zm6,10.5V31.94h4.45v3.37l-1.1,1.1Zm4.45-9.15v3.37H46.83V26.21h3.41Zm-.18-1.49h.18V26Zm.18,10.84v-.2h.19ZM76.84,44H61.68V25.77H73.56V24.46h-55v1.31H30.38V44H15.2V23.76l7.09-4.33,1.23,2,6.86-4.19v6h1.31V16.48L46,7.72l14.34,8.75v6.82h1.3v-6l6.89,4.2,1.32-2.16,7,4.24Z" fill="#fff"/><path d="M46,14.51,31.81,23.29H60.16Z" fill="#fff"/><polygon points="46.19 4.85 45.57 5.23 45.82 4.82 45.98 4.72 46.19 4.85" fill="#fff"/><polygon points="46.27 4.81 46.27 4.82 46.26 4.81 46.27 4.81" fill="#fff"/><polygon points="46.19 4.85 45.57 5.23 45.82 4.82 45.91 4.68 45.94 4.62 46.04 4.68 45.98 4.72 46.19 4.85" fill="#fff"/><polygon points="61.68 14.22 61.68 14.3 60.38 13.51 60.38 13.43 61.68 14.22" fill="#fff"/><rect x="40.66" y="30.63" width="4.59" height="1.31" fill="#fff"/><polygon points="51.47 36.41 51.28 36.61 51.28 36.41 51.47 36.41" fill="#fff"/><polygon points="40.79 36.41 40.79 36.62 40.58 36.41 40.79 36.41" fill="#fff"/><polygon points="60.69 12.14 60.69 12.2 60.38 12.2 60.38 11.96 60.69 12.14" fill="#fff"/><g style="isolation:isolate"><g style="isolation:isolate"><path d="M102.71,11.9h6.07c4.75,0,7.43,2.44,7.43,6.3a4.77,4.77,0,0,1-2.61,4.52c.33.07,3.86,1.09,3.86,5.68,0,4-3,6.6-7.53,6.6h-7.22Zm6.53,10c2.61,0,4.19-1.41,4.19-3.66s-1.58-3.66-4.19-3.66h-3.76v7.32Zm5.45,6.54c0-2.18-1.46-4-4.76-4h-4.45v7.92h4.45C113.23,32.36,114.69,30.58,114.69,28.4Z" fill="#fff"/><path d="M124.06,21.83h9.77v2.64h-9.77v7.89h10.76V35H121.29V11.9h13.33v2.64H124.06Z" fill="#fff"/><path d="M146.17,25.3,140.23,35h-3.14l7.46-11.95L137.62,11.9h3.27l5.48,9,5.44-9h3.1L148,23.05l7.46,12h-3.3Z" fill="#fff"/><path d="M175,16.85a8.37,8.37,0,0,0-6.37-2.71c-5,0-8.45,4.39-8.45,9.31s3.44,9.31,8.45,9.31a9.12,9.12,0,0,0,6.67-3.07l1.88,1.91a11.73,11.73,0,0,1-8.55,3.8c-6.66,0-11.42-5.28-11.42-11.95S162,11.5,168.67,11.5A11.11,11.11,0,0,1,177,15Z" fill="#fff"/><path d="M180.59,11.9h6c4.59,0,7.73,2.7,7.73,6.83a6.56,6.56,0,0,1-5.65,6.6l6.4,9.67h-3.33l-6.24-9.44h-2.14V35h-2.77Zm10.95,6.83c0-2.54-1.68-4.19-4.78-4.19h-3.4v8.38h3.4C189.86,22.92,191.54,21.27,191.54,18.73Z" fill="#fff"/><path d="M201.61,21.83h9.77v2.64h-9.77v7.89h10.76V35H198.83V11.9h13.34v2.64H201.61Z" fill="#fff"/><path d="M222.92,24.6c-3.36-1.55-6.33-3.1-6.33-7a6.32,6.32,0,0,1,6.66-6.07,8.22,8.22,0,0,1,6.57,3.37l-2.08,1.68a5.8,5.8,0,0,0-4.49-2.41,3.59,3.59,0,0,0-3.89,3.43c0,2.35,2,3.27,5.15,4.72,3.53,1.62,5.74,3.11,5.74,6.83s-3.1,6.28-7.16,6.28a8,8,0,0,1-7.36-4.82L218,29.19s1.39,3.57,5.05,3.57c2.21,0,4.32-1.26,4.32-3.64S225.5,25.79,222.92,24.6Z" fill="#fff"/><path d="M239.06,14.54h-6.63V11.9h16v2.64h-6.64V35h-2.77Z" fill="#fff"/></g></g><g style="isolation:isolate"><g style="isolation:isolate"><path d="M270.47,15.6h1.14V31h-1.14V23.63H261.6V31h-1.15V15.6h1.15v7h8.87Z" fill="#fff"/><path d="M274.51,23.3a7.62,7.62,0,1,1,15.23,0,7.62,7.62,0,1,1-15.23,0Zm1.19,0c0,3.78,2.57,6.84,6.42,6.84s6.43-3.06,6.43-6.84-2.57-6.84-6.43-6.84S275.7,19.51,275.7,23.3Z" fill="#fff"/><path d="M293.72,15.6l5.9,9.46,5.89-9.46h1.08V31h-1.14V17.86l-5.83,9.29-5.86-9.26V31h-1.12V15.6Z" fill="#fff"/><path d="M311.6,22.57h6.87v1.06H311.6v6.31h7.53V31h-8.67V15.6H319v1h-7.4Z" fill="#fff"/><path d="M326.3,23.67c-2.27-1-4.14-2.18-4.14-4.51a4,4,0,0,1,4.29-3.83,5.23,5.23,0,0,1,4.18,2.23l-.88.68a4,4,0,0,0-3.27-1.78c-1.94,0-3.17,1.16-3.17,2.7,0,1.89,1.74,2.73,3.94,3.7,2.35,1,3.67,2.22,3.67,4.29,0,2.49-2,4.11-4.6,4.11a5.48,5.48,0,0,1-4.77-3.14l1-.62a4.22,4.22,0,0,0,3.74,2.64c1.92,0,3.46-1.14,3.46-3S328.1,24.46,326.3,23.67Z" fill="#fff"/></g></g></svg>