<?xml version="1.0" encoding="utf-8"?>
<!-- Generator: Adobe Illustrator 24.0.3, SVG Export Plug-In . SVG Version: 6.00 Build 0)  -->
<svg version="1.1" id="Layer_1" xmlns="http://www.w3.org/2000/svg" xmlns:xlink="http://www.w3.org/1999/xlink" x="0px"
	y="0px" viewBox="0 0 348.8 264.5" style="enable-background:new 0 0 348.8 264.5;" xml:space="preserve">
	<style type="text/css">
		.st0 {
			fill: #000;
		}

		.st1 {
			font-family: 'Europa-Regular';
		}

		.st2 {
			font-size: 48px;
		}

		.st3 {
			font-family: 'Europa-Light';
		}

		.st4 {
			font-size: 22px;
		}
	</style>
	<title>bexcrest</title>
	<rect x="53.1" y="41.8" class="st0" width="5" height="149" />
	<rect x="116.1" y="0.5" class="st0" width="5" height="88.5" />
	<rect x="230.7" class="st0" width="5" height="89" />
	<rect x="293.6" y="41.8" class="st0" width="5" height="149" />
	<rect x="3.9" y="168.1" class="st0" width="344.8" height="5" />
	<rect x="116.1" y="93.8" class="st0" width="39.8" height="75" />
	<rect x="195.9" y="93.8" class="st0" width="39.8" height="75" />
	<rect x="154.3" y="139.1" class="st0" width="44.1" height="31.5" />
	<rect x="155.9" y="93.8" class="st0" width="40.1" height="6.3" />
	<rect x="172.9" y="100.1" class="st0" width="6" height="39" />
	<rect x="116.4" y="174.1" class="st0" width="5" height="16.9" />
	<rect x="230.4" y="173.4" class="st0" width="5" height="17.5" />
	<rect x="-13.7" y="65.8" transform="matrix(0.8537 -0.5207 0.5207 0.8537 -22.5763 56.5959)" class="st0" width="206.3"
		height="5.4" />
	<rect x="257.7" y="-33.2" transform="matrix(0.5207 -0.8537 0.8537 0.5207 67.828 254.1511)" class="st0" width="5.1"
		height="199.7" />
	<polygon class="st0" points="175.7,55.4 121.6,89 229.9,89 " />
	<rect x="79.5" y="44.9" transform="matrix(0.8537 -0.5207 0.5207 0.8537 -6.4723 76.5984)" class="st0" width="107.3"
		height="9.9" />
	<rect x="213.8" y="-3.8" transform="matrix(0.5207 -0.8537 0.8537 0.5207 62.322 210.6738)" class="st0" width="9.9"
		height="107.3" />
	<rect x="70.9" y="93.5" class="st0" width="210.2" height="5" />
	<rect x="155.4" y="117" class="st0" width="42" height="5" />
	<rect x="150.5" y="99.6" transform="matrix(0.7071 -0.7071 0.7071 0.7071 -25.9499 140.0162)" class="st0" width="11"
		height="3.5" />
	<rect x="189.8" y="136.3" transform="matrix(0.7071 -0.7071 0.7071 0.7071 -40.404 178.5347)" class="st0" width="11"
		height="3.5" />
	<rect x="193.5" y="95.5" transform="matrix(0.7071 -0.7071 0.7071 0.7071 -14.2312 167.686)" class="st0" width="3.5"
		height="11" />
	<rect x="155.5" y="133.3" transform="matrix(0.7071 -0.7071 0.7071 0.7071 -52.1049 151.8233)" class="st0" width="3.5"
		height="11" />
	<rect x="209" y="33.9" class="st0" width="22.9" height="12.7" />
	<text transform="matrix(1 0 0 1 66.03 232.73)" class="st0 st1 st2">BEXCREST</text>
	<text transform="matrix(1 0 0 1 137.52 258.96)" class="st0 st3 st4">HOMES</text>
	<rect x="33.4" y="249.9" class="st0" width="100" height="3" />
	<rect x="218" y="249.9" class="st0" width="100" height="3" />
</svg>