<svg xmlns="http://www.w3.org/2000/svg" width="14" height="14" viewBox="0 0 14 14">
    <defs>
        <style>
            .a {
                fill: #4b4b4b;
            }
        </style>
    </defs>
    <path class="a"
        d="M13.491.672,10.647.016A.66.66,0,0,0,9.9.4L8.583,3.458a.655.655,0,0,0,.189.766L10.428,5.58a10.134,10.134,0,0,1-4.845,4.845L4.227,8.768a.656.656,0,0,0-.766-.189L.4,9.892a.664.664,0,0,0-.383.755l.656,2.844a.656.656,0,0,0,.64.509A12.686,12.686,0,0,0,14,1.312.655.655,0,0,0,13.491.672Z"
        transform="translate(0.001 0.001)" />
</svg>