<svg xmlns="http://www.w3.org/2000/svg" width="37" height="31" viewBox="0 0 37 31">
    <defs>
        <style>
            .a {
                fill: none;
                stroke: #fff;
            }
        </style>
    </defs>
    <path class="a"
        d="M32.625,17.25H27V12.964a4.4,4.4,0,0,1,4.5-4.286h.563A1.645,1.645,0,0,0,33.75,7.071V3.857A1.645,1.645,0,0,0,32.063,2.25H31.5A10.989,10.989,0,0,0,20.25,12.964V29.036a3.3,3.3,0,0,0,3.375,3.214h9A3.3,3.3,0,0,0,36,29.036V20.464A3.3,3.3,0,0,0,32.625,17.25Zm-20.25,0H6.75V12.964a4.4,4.4,0,0,1,4.5-4.286h.563A1.645,1.645,0,0,0,13.5,7.071V3.857A1.645,1.645,0,0,0,11.813,2.25H11.25A10.989,10.989,0,0,0,0,12.964V29.036A3.3,3.3,0,0,0,3.375,32.25h9a3.3,3.3,0,0,0,3.375-3.214V20.464A3.3,3.3,0,0,0,12.375,17.25Z"
        transform="translate(0.5 -1.75)" />
</svg>